<svg width="58" height="58" viewBox="0 0 58 58" fill="none" xmlns="http://www.w3.org/2000/svg">
<g filter="url(#filter0_d_98_119)">
<path d="M50 25C50 38.8071 38.8071 50 25 50C11.1929 50 0 38.8071 0 25C0 11.1929 11.1929 0 25 0C38.8071 0 50 11.1929 50 25Z" fill="#555453"/>
</g>
<path d="M38.1299 33.5388L37.9346 33.2894C36.3884 31.2863 35.0962 30.244 33.9872 30.1069C33.0286 29.973 32.1015 30.652 31.1158 31.351L30.0624 32.0253C29.9362 32.09 29.8115 32.1424 29.6943 32.1778C29.0782 32.3564 27.523 32.4611 26.6425 31.6358C25.6177 30.6751 24.028 28.9168 22.7913 27.3802C21.6103 25.7897 20.3121 23.8067 19.6344 22.558C19.0619 21.5003 19.5412 20.0207 19.8613 19.4725C19.9244 19.3648 20.007 19.2585 20.0987 19.1538L21.0273 18.2747C21.0408 18.2608 21.0468 18.2439 21.0588 18.2316C21.0679 18.2223 21.0829 18.2254 21.0934 18.2177C21.9319 17.4925 22.7989 16.7458 22.9176 15.7866C23.0573 14.6596 22.3736 13.1353 20.8244 11.1338L20.6351 10.8843C19.6764 9.6249 18.2264 7.72035 16.1438 8.03444C15.3249 8.15915 14.5931 8.44553 13.8388 8.93052C13.8313 8.93514 13.8268 8.94438 13.8208 8.949C13.8148 8.95361 13.8073 8.95362 13.8013 8.95823L12.751 9.75578C12.7404 9.76193 12.7344 9.77579 12.7239 9.78503C12.7164 9.79273 12.7044 9.79427 12.6954 9.80196C12.5736 9.90666 12.4519 10.0144 12.3317 10.1253C11.2664 11.0984 8.95988 13.9236 10.5331 19.1492C11.5489 22.5241 13.6435 26.4626 16.6051 30.5611L16.5766 30.5858L18.2099 32.6705L18.2234 32.6597C21.4345 36.5519 24.7027 39.5604 27.6973 41.3818C29.6958 42.5981 31.4418 43 32.8783 43C34.7686 43 36.1224 42.3041 36.8016 41.8514L37.2284 41.5589C37.2764 41.525 37.311 41.4773 37.3456 41.4342L38.2757 40.7167C38.2862 40.7075 38.2922 40.6951 38.3027 40.6859C38.3072 40.6813 38.3147 40.6828 38.3208 40.6782C38.9819 40.0593 39.4402 39.4111 39.7588 38.6428C40.5837 36.6736 39.1066 34.7875 38.1299 33.5388ZM38.6543 38.1593C38.4064 38.7567 38.0443 39.2648 37.5214 39.7575L36.1375 40.8245C34.8843 41.659 32.2052 42.6905 28.3134 40.3225C25.3187 38.5011 22.022 35.4218 18.7779 31.4172L17.9004 30.2809C14.8456 26.13 12.6969 22.1546 11.6826 18.7858C10.3648 14.4055 12.0252 12.056 13.1371 11.0414C13.2498 10.9367 13.3625 10.8397 13.4737 10.7427L13.4782 10.7381L14.4865 9.97287C15.0995 9.57564 15.6675 9.35393 16.3211 9.25231C17.7171 9.03676 18.853 10.5456 19.687 11.6419L19.8823 11.8959C21.6133 14.133 21.7801 15.1969 21.726 15.6311C21.6659 16.113 20.9507 16.7304 20.3196 17.2739L20.2309 17.3509C20.2279 17.354 20.2264 17.3586 20.2234 17.3617C20.2189 17.3647 20.2144 17.3663 20.2099 17.3694L19.2497 18.2793C19.2437 18.2855 19.2407 18.2932 19.2347 18.3009C19.2287 18.3086 19.2167 18.3116 19.2106 18.3193C19.0619 18.4902 18.9342 18.6611 18.8305 18.8382C18.291 19.7635 17.7817 21.6758 18.5856 23.1554C19.2873 24.4487 20.6231 26.4918 21.8507 28.1423C23.1339 29.7374 24.7703 31.548 25.8311 32.5411C26.626 33.2848 27.7319 33.5342 28.6891 33.5342C29.2015 33.5342 29.6718 33.4618 30.0279 33.3587C30.2157 33.3033 30.4095 33.2232 30.6094 33.1231C30.6214 33.117 30.6274 33.1062 30.6394 33.0985C30.6455 33.0954 30.6545 33.0969 30.6605 33.0923L31.7754 32.3779C31.8115 32.3533 31.8355 32.321 31.8656 32.2902L31.8791 32.3056C32.5658 31.8175 33.3486 31.2447 33.8385 31.3279C34.2727 31.3818 35.2584 31.8098 36.9925 34.0531L37.1923 34.3102C38.0368 35.3895 39.1938 36.8676 38.6543 38.1593Z" fill="white"/>
<defs>
<filter id="filter0_d_98_119" x="0" y="0" width="58" height="58" filterUnits="userSpaceOnUse" color-interpolation-filters="sRGB">
<feFlood flood-opacity="0" result="BackgroundImageFix"/>
<feColorMatrix in="SourceAlpha" type="matrix" values="0 0 0 0 0 0 0 0 0 0 0 0 0 0 0 0 0 0 127 0" result="hardAlpha"/>
<feOffset dx="4" dy="4"/>
<feGaussianBlur stdDeviation="2"/>
<feComposite in2="hardAlpha" operator="out"/>
<feColorMatrix type="matrix" values="0 0 0 0 0.572549 0 0 0 0 0.639216 0 0 0 0 0.67451 0 0 0 1 0"/>
<feBlend mode="normal" in2="BackgroundImageFix" result="effect1_dropShadow_98_119"/>
<feBlend mode="normal" in="SourceGraphic" in2="effect1_dropShadow_98_119" result="shape"/>
</filter>
</defs>
</svg>
