<svg width="35" height="35" viewBox="0 0 35 35" fill="none" xmlns="http://www.w3.org/2000/svg">
<g clip-path="url(#clip0_48_139)">
<path d="M0 17.5C0 27.165 7.83497 35 17.5 35C27.1651 35 35.0001 27.165 35.0001 17.5C35.0001 7.8349 27.1651 -7.24792e-05 17.5 -7.24792e-05C7.83497 -7.24792e-05 0 7.8349 0 17.5Z" fill="url(#paint0_linear_48_139)"/>
<path d="M11.8459 18.7792L13.9222 24.526C13.9222 24.526 14.1818 25.0635 14.4598 25.0635C14.7379 25.0635 18.8719 20.7626 18.8719 20.7626L23.4694 11.8828L11.9201 17.296L11.8459 18.7792Z" fill="#C8DAEA"/>
<path d="M14.5987 20.2528L14.2001 24.4887C14.2001 24.4887 14.0333 25.7864 15.3309 24.4887C16.6286 23.191 17.8707 22.19 17.8707 22.19" fill="#A9C6D8"/>
<path d="M11.8832 18.9842L7.61279 17.5926C7.61279 17.5926 7.10306 17.3858 7.26679 16.9161C7.30061 16.8192 7.36868 16.7369 7.5726 16.5947C8.51908 15.9352 25.0881 9.97968 25.0881 9.97968C25.0881 9.97968 25.556 9.82218 25.8326 9.92688C25.9589 9.97479 26.0396 10.0289 26.1075 10.2265C26.1323 10.2984 26.1465 10.4513 26.1446 10.6035C26.1431 10.7132 26.1298 10.8148 26.12 10.9742C26.0191 12.6026 22.9996 24.7545 22.9996 24.7545C22.9996 24.7545 22.819 25.4656 22.1716 25.4898C21.9355 25.4987 21.649 25.4507 21.3064 25.1561C20.0362 24.0634 15.6453 21.1125 14.6752 20.4637C14.6204 20.4272 14.6049 20.3796 14.5956 20.3332C14.582 20.265 14.6549 20.1798 14.6549 20.1798C14.6549 20.1798 22.3004 13.3837 22.5038 12.6707C22.5196 12.6154 22.4604 12.5881 22.3802 12.612C21.8724 12.7988 13.0695 18.3573 12.0981 18.9713C12.0413 19.0072 11.8821 18.984 11.8821 18.984" fill="white"/>
</g>
<defs>
<linearGradient id="paint0_linear_48_139" x1="17.5" y1="34.9999" x2="17.5" y2="-0.000220785" gradientUnits="userSpaceOnUse">
<stop stop-color="#1D93D2"/>
<stop offset="1" stop-color="#38B0E3"/>
</linearGradient>
<clipPath id="clip0_48_139">
<rect width="35" height="35" fill="white"/>
</clipPath>
</defs>
</svg>
