<svg width="35" height="35" viewBox="0 0 35 35" fill="none" xmlns="http://www.w3.org/2000/svg">
<path d="M17.5 0C27.165 0 35 7.83504 35 17.5C35 27.165 27.165 35 17.5 35C7.83504 35 0 27.165 0 17.5C0 7.83504 7.83504 0 17.5 0Z" fill="#7F4DA0"/>
<path d="M22.1624 15.2822C22.0773 14.5907 21.8647 14.0477 21.4873 13.5668C20.9972 12.9475 20.3709 12.5767 19.4436 12.3567C18.8393 12.2101 18.5952 12.2269 18.3766 12.4266C18.1731 12.6136 18.1333 12.9886 18.2888 13.2314C18.3983 13.4077 18.5245 13.4708 18.8755 13.5397C19.343 13.6257 19.6661 13.7373 19.9599 13.9053C20.5837 14.2655 20.8742 14.8291 20.9053 15.7416C20.9198 16.17 20.9569 16.3017 21.1065 16.4536C21.3838 16.7314 21.8774 16.6774 22.0868 16.345C22.1636 16.2197 22.1753 16.1652 22.1834 15.8743C22.1888 15.6942 22.181 15.4261 22.1624 15.2822Z" fill="white"/>
<path d="M24.6054 16.0616C24.4822 13.9431 23.6536 12.2387 22.1706 11.0395C21.3351 10.3656 20.3251 9.90229 19.2181 9.67698C18.8125 9.59633 18.0659 9.53107 17.9378 9.5684C17.8169 9.60304 17.646 9.73385 17.5698 9.85227C17.4892 9.9806 17.471 10.2672 17.5398 10.4329C17.6507 10.71 17.8571 10.8079 18.4352 10.8585C19.3263 10.9365 20.2454 11.2495 20.9399 11.713C21.7327 12.2407 22.363 12.9625 22.7707 13.8107C23.123 14.5395 23.3396 15.5897 23.3337 16.5302C23.3316 16.8703 23.3842 17.0624 23.5209 17.2029C23.7274 17.4188 24.0284 17.466 24.294 17.3226C24.5884 17.1678 24.6572 16.896 24.6054 16.0616Z" fill="white"/>
<path d="M27.3088 24.2201C27.2674 24.099 27.1707 23.9123 27.1017 23.805C26.6665 23.1478 24.3282 21.3179 23.1608 20.7195C22.4942 20.3771 22.0004 20.263 21.6343 20.3701C21.2405 20.4809 21.0333 20.6642 20.3736 21.484C20.1077 21.8126 19.8348 22.1205 19.7623 22.1689C19.5827 22.2934 19.2303 22.3938 18.9817 22.3938C18.4049 22.3903 17.3584 22.0167 16.5536 21.5255C15.9285 21.145 15.1272 20.4636 14.5124 19.789C13.7871 18.9969 13.2932 18.2982 12.9029 17.5095C12.3987 16.496 12.2709 15.8768 12.4815 15.4237C12.5334 15.3095 12.6025 15.1885 12.6335 15.1504C12.6646 15.1159 12.9893 14.8495 13.3484 14.5589C14.0531 13.9986 14.1671 13.8706 14.2983 13.4866C14.4641 12.9989 14.4192 12.5008 14.1636 11.9993C13.9667 11.6187 13.4521 10.7886 13.0791 10.2524C12.5852 9.54679 11.3556 8.03866 11.1103 7.83449C10.6683 7.47479 10.1019 7.41252 9.47671 7.65468C8.81711 7.91061 7.58059 8.90687 7.05212 9.60213C6.5755 10.2317 6.3925 10.6779 6.36484 11.2659C6.34068 11.7502 6.38211 11.9508 6.6377 12.57C8.63744 17.4265 11.6216 21.3041 15.7213 24.3827C17.8626 25.9911 20.0835 27.2157 22.3872 28.0528C23.7307 28.5405 24.3144 28.5647 25.0017 28.1635C25.2918 27.9905 26.0102 27.2537 26.4109 26.7176C27.074 25.8251 27.3193 25.4135 27.3883 25.0849C27.4367 24.86 27.3987 24.4692 27.3088 24.2201Z" fill="white"/>
<path d="M27.0925 16.5485C27.0483 15.3502 26.8465 14.3673 26.4258 13.2714C26.0105 12.1934 25.5901 11.4899 24.7962 10.5385C24.0456 9.64645 23.4626 9.13705 22.538 8.57013C21.248 7.78015 19.6782 7.25735 17.9188 7.03749C17.3189 6.96065 17.1831 6.96614 16.999 7.08896C16.6423 7.32165 16.6471 7.90192 17.0049 8.13109C17.1234 8.20401 17.2284 8.23062 17.7084 8.29341C18.4451 8.39257 18.9189 8.48605 19.481 8.63947C21.6853 9.24198 23.3804 10.4737 24.5136 12.3021C25.462 13.826 25.8557 15.3501 25.7998 17.2966C25.7803 17.9546 25.7945 18.0704 25.895 18.2285C26.0877 18.5232 26.5957 18.5815 26.8563 18.3369C27.0185 18.1879 27.049 18.0761 27.0809 17.5128C27.0963 17.219 27.0995 16.7853 27.0925 16.5485Z" fill="white"/>
</svg>
